<svg width="80" height="80" viewBox="0 0 80 80" fill="none" xmlns="http://www.w3.org/2000/svg">
<g clip-path="url(#clip0_63899_376)">
<path fill-rule="evenodd" clip-rule="evenodd" d="M40 40C40 32.6364 46.6946 26.6667 54.9523 26.6667C63.21 26.6667 69.9046 32.6364 69.9046 40C69.9046 47.3636 63.21 53.3332 54.9523 53.3332C46.6946 53.3332 40 47.3636 40 40Z" fill="#1ABCFE"/>
<path fill-rule="evenodd" clip-rule="evenodd" d="M10.0947 66.6668C10.0947 59.3029 16.7891 53.3333 25.0471 53.3333H39.9996V66.6668C39.9996 74.0303 33.3049 80 25.0471 80C16.7891 80 10.0947 74.0303 10.0947 66.6668Z" fill="#0ACF83"/>
<path fill-rule="evenodd" clip-rule="evenodd" d="M40 0V26.6668H54.9523C63.21 26.6668 69.9046 20.697 69.9046 13.3333C69.9046 5.96953 63.21 0 54.9523 0H40Z" fill="#FF7262"/>
<path fill-rule="evenodd" clip-rule="evenodd" d="M10.0947 13.3333C10.0947 20.697 16.7891 26.6668 25.0471 26.6668H39.9996V0H25.0471C16.7891 0 10.0947 5.96953 10.0947 13.3333Z" fill="#F24E1E"/>
<path fill-rule="evenodd" clip-rule="evenodd" d="M10.0947 40C10.0947 47.3636 16.7891 53.3332 25.0471 53.3332H39.9996V26.6667H25.0471C16.7891 26.6667 10.0947 32.6364 10.0947 40Z" fill="#A259FF"/>
</g>
<defs>
<clipPath id="clip0_63899_376">
<rect width="80" height="80" fill="white"/>
</clipPath>
</defs>
</svg>
