<svg width="80" height="80" viewBox="0 0 80 80" fill="none" xmlns="http://www.w3.org/2000/svg">
<g clip-path="url(#clip0_63899_382)">
<path d="M14.2081 0H65.723C73.5333 0 79.8481 6.49572 79.8481 14.5299V65.4701C79.8481 73.5042 73.5333 80 65.723 80H14.2081C6.39773 80 0.0830078 73.5042 0.0830078 65.4701V14.5299C0.0830078 6.49572 6.39773 0 14.2081 0Z" fill="#330000"/>
<path d="M38.6361 47.8632H26.2725L23.7466 55.8974C23.6801 56.2052 23.4142 56.4103 23.1151 56.3761H16.8668C16.5013 56.3761 16.4015 56.171 16.5013 55.7608L27.2031 24.0684C27.3029 23.7266 27.4024 23.3505 27.5354 22.9402C27.6684 22.2223 27.7348 21.4701 27.7348 20.718C27.7016 20.5471 27.8346 20.3761 28.0008 20.3419H36.6086C36.8746 20.3419 37.0074 20.4445 37.0408 20.6154L49.1716 55.8291C49.2714 56.2052 49.1716 56.3761 48.8392 56.3761H41.8931C41.6605 56.4103 41.4277 56.2393 41.3613 56.0001L38.6361 47.8632ZM28.2002 40.9231H36.6418C36.4424 40.2052 36.1767 39.3504 35.8775 38.4617C35.5783 37.5384 35.2793 36.5471 34.9801 35.5213C34.6478 34.4617 34.3486 33.436 34.0164 32.3761C33.684 31.3162 33.3849 30.3249 33.1188 29.3333C32.8531 28.3761 32.6205 27.4872 32.3877 26.6668H32.3213C32.0221 28.1369 31.6566 29.6069 31.1914 31.077C30.6928 32.718 30.1943 34.4273 29.6625 36.1369C29.1971 37.8803 28.6985 39.4872 28.2002 40.9231ZM56.5831 26.3249C55.4864 26.359 54.4229 25.9147 53.6253 25.1283C52.8608 24.2736 52.462 23.1454 52.4952 21.983C52.462 20.8206 52.894 19.7266 53.6917 18.9402C54.4892 18.1539 55.5528 17.7437 56.6497 17.7437C57.9458 17.7437 58.943 18.1539 59.6741 18.9402C60.4053 19.7607 60.804 20.8548 60.7709 21.983C60.804 23.1454 60.4053 24.2736 59.6075 25.1283C58.8432 25.9488 57.7133 26.3932 56.5831 26.3249ZM52.8608 56.0001V29.6752C52.8608 29.3333 52.9938 29.1967 53.293 29.1967H59.8735C60.1727 29.1967 60.3055 29.3677 60.3055 29.6752V56.0001C60.3055 56.3761 60.1727 56.5471 59.8735 56.5471H53.3593C53.027 56.5471 52.8608 56.342 52.8608 56.0001Z" fill="#FF9A00"/>
</g>
<defs>
<clipPath id="clip0_63899_382">
<rect width="80" height="80" fill="white"/>
</clipPath>
</defs>
</svg>
