<svg width="80" height="80" viewBox="0 0 80 80" fill="none" xmlns="http://www.w3.org/2000/svg">
<g clip-path="url(#clip0_63899_398)">
<path d="M0 7.64331C0 3.42204 3.42204 0 7.64331 0H72.3567C76.5781 0 80 3.42204 80 7.64331V72.3567C80 76.5781 76.5781 80 72.3567 80H7.64331C3.42204 80 0 76.5781 0 72.3567V7.64331Z" fill="#F7DF1E"/>
<path d="M21.0355 66.8538L27.1574 63.1488C28.3385 65.2428 29.4129 67.0148 31.9903 67.0148C34.4606 67.0148 36.0183 66.0484 36.0183 62.2897V36.7279H43.536V62.3959C43.536 70.1824 38.9717 73.7269 32.3123 73.7269C26.2983 73.7269 22.8073 70.6122 21.0352 66.8533M47.6196 66.0482L53.7408 62.504C55.3523 65.1356 57.4468 67.0688 61.1518 67.0688C64.267 67.0688 66.2532 65.5114 66.2532 63.3631C66.2532 60.7858 64.2127 59.8726 60.7757 58.3694L58.8968 57.5631C53.4726 55.2548 49.8749 52.3547 49.8749 46.2329C49.8749 40.5942 54.1706 36.2979 60.8835 36.2979C65.6629 36.2979 69.0998 37.9628 71.5699 42.3126L65.7161 46.0719C64.4269 43.7628 63.0313 42.85 60.8833 42.85C58.6815 42.85 57.285 44.2464 57.285 46.0719C57.285 48.3272 58.6815 49.2405 61.9034 50.637L63.7826 51.4423C70.1732 54.1812 73.7712 56.9735 73.7712 63.2561C73.7712 70.0229 68.4547 73.7279 61.3126 73.7279C54.3317 73.7279 49.8208 70.3985 47.6193 66.0484" fill="black"/>
</g>
<defs>
<clipPath id="clip0_63899_398">
<rect width="80" height="80" fill="white"/>
</clipPath>
</defs>
</svg>
