<svg width="80" height="80" viewBox="0 0 80 80" fill="none" xmlns="http://www.w3.org/2000/svg">
<g clip-path="url(#clip0_63899_389)">
<path d="M40.0006 80C38.7584 80 37.5986 79.706 36.5222 79.1913L25.5075 73.3852C23.8513 72.5768 24.6794 72.2831 25.1763 72.1361C27.4125 71.4744 27.8263 71.3274 30.1453 70.1516C30.3936 70.0046 30.7252 70.078 30.9736 70.2247L39.4209 74.7083C39.7522 74.8553 40.1661 74.8553 40.4144 74.7083L73.4594 57.7307C73.7883 57.5837 73.9573 57.2897 73.9573 56.9225V23.0409C73.9573 22.6732 73.7883 22.3793 73.4594 22.2323L40.4144 5.32836C40.0835 5.18138 39.669 5.18138 39.4209 5.32836L6.37695 22.2323C6.0454 22.3793 5.88003 22.7469 5.88003 23.0409V56.9225C5.88003 57.2163 6.0454 57.5837 6.37695 57.7307L15.404 62.3608C20.2901 64.5659 23.3544 61.9936 23.3544 59.4211V25.9804C23.3544 25.5396 23.7682 25.0986 24.3482 25.0986H28.5717C29.0686 25.0986 29.5656 25.4663 29.5656 25.9804V59.4211C29.5656 65.227 26.0044 68.6079 19.7932 68.6079C17.8886 68.6079 16.3978 68.6079 12.1739 66.7704L3.47807 62.3608C1.32499 61.2586 0 59.2005 0 56.9957V23.1142C0 20.9095 1.32499 18.8517 3.47807 17.7492L36.5222 0.771936C38.5926 -0.257312 41.4082 -0.257312 43.4787 0.771936L76.5242 17.7492C78.6755 18.8517 80 20.9095 80 23.1142V56.9957C80 59.2005 78.6755 61.2586 76.5242 62.3608L43.4787 79.3383C42.4849 79.706 41.243 80 40.0006 80Z" fill="#5FA04E"/>
<path d="M50.315 56.8152C35.8905 56.8152 32.9238 50.8934 32.9238 45.8598C32.9238 45.4157 33.3357 44.9717 33.9124 44.9717H38.1981C38.6928 44.9717 39.1049 45.2677 39.1049 45.7118C39.764 49.6348 41.6597 51.5594 50.397 51.5594C57.3195 51.5594 60.2873 50.1533 60.2873 46.8224C60.2873 44.8973 59.4604 43.4909 48.6648 42.5288C39.6817 41.7143 34.0773 39.938 34.0773 33.4978C34.0773 27.5021 39.6817 23.949 49.0772 23.949C59.6282 23.949 64.819 27.206 65.4781 34.3123C65.4781 34.5342 65.3963 34.7564 65.2326 34.9783C65.0645 35.1263 64.819 35.2746 64.5692 35.2746H60.2012C59.792 35.2746 59.3784 34.9783 59.2967 34.6083C58.3058 30.5373 55.7516 29.2045 48.9949 29.2045C41.4125 29.2045 40.5056 31.5734 40.5056 33.3497C40.5056 35.4965 41.5771 36.163 51.7969 37.3472C61.9329 38.5314 66.7144 40.2341 66.7144 46.5999C66.7144 53.1138 60.6965 56.8152 50.315 56.8152Z" fill="#5FA04E"/>
</g>
<defs>
<clipPath id="clip0_63899_389">
<rect width="80" height="80" fill="white"/>
</clipPath>
</defs>
</svg>
