<svg width="80" height="80" viewBox="0 0 80 80" fill="none" xmlns="http://www.w3.org/2000/svg">
<path fill-rule="evenodd" clip-rule="evenodd" d="M14.9917 14.237C17.4671 16.2482 18.3958 16.0948 23.0442 15.7846L66.8674 13.1532C67.7969 13.1532 67.0241 12.226 66.714 12.0719L59.4359 6.8104C58.0414 5.7277 56.1834 4.48779 52.6225 4.79797L10.1885 7.89296C8.64089 8.0464 8.33182 8.82019 8.94809 9.44038L14.9917 14.237ZM17.6228 24.45V70.5596C17.6228 73.0377 18.861 73.9648 21.6482 73.8114L69.81 71.0247C72.5985 70.8714 72.9092 69.1669 72.9092 67.1538V21.3536C72.9092 19.3439 72.1359 18.26 70.429 18.4148L20.0996 21.3536C18.2422 21.5096 17.6228 22.4388 17.6228 24.45ZM65.1678 26.9234C65.4766 28.3173 65.1678 29.7101 63.7711 29.8668L61.4508 30.3292V64.3703C59.4359 65.4532 57.578 66.0722 56.0298 66.0722C53.5511 66.0722 52.9303 65.298 51.0737 62.9783L35.8948 39.1493V62.2045L40.698 63.2884C40.698 63.2884 40.698 66.0722 36.8228 66.0722L26.1398 66.6919C25.8294 66.0722 26.1398 64.5261 27.2234 64.2165L30.0111 63.4437V32.9604L26.1406 32.6503C25.83 31.2562 26.6033 29.2463 28.7729 29.0904L40.2332 28.3178L56.0298 52.457V31.1028L52.0023 30.6407C51.6932 28.9365 52.9303 27.6991 54.4791 27.5456L65.1678 26.9234ZM6.62563 3.71541L50.7638 0.464939C56.1841 7.10564e-05 57.5786 0.311497 60.9854 2.78614L75.0748 12.689C77.3996 14.3919 78.1746 14.8555 78.1746 16.7119V71.0247C78.1746 74.4285 76.9345 76.4416 72.5993 76.7496L21.3415 79.8448C18.0871 80 16.5383 79.5364 14.834 77.3687L4.45835 63.9068C2.59934 61.4287 1.82617 59.5749 1.82617 57.406V9.1291C1.82617 6.34554 3.06656 4.02355 6.62563 3.71541Z" fill="black"/>
</svg>
