<svg width="80" height="80" viewBox="0 0 80 80" fill="none" xmlns="http://www.w3.org/2000/svg">
<g clip-path="url(#clip0_63899_385)">
<path d="M14.2081 0H65.723C73.5333 0 79.8481 6.49572 79.8481 14.5299V65.4701C79.8481 73.5042 73.5333 80 65.723 80H14.2081C6.39773 80 0.0830078 73.5042 0.0830078 65.4701V14.5299C0.0830078 6.49572 6.39773 0 14.2081 0Z" fill="#001E36"/>
<path d="M18.0293 56.1026V20.923C18.0293 20.6837 18.129 20.5469 18.3617 20.5469C18.9267 20.5469 19.4584 20.5469 20.2228 20.5128C21.0205 20.4786 21.8514 20.4786 22.7487 20.4444C23.6461 20.4102 24.6099 20.4102 25.6403 20.376C26.6706 20.3418 27.6675 20.3418 28.6647 20.3418C31.3899 20.3418 33.6499 20.6837 35.5112 21.4016C37.1729 21.9828 38.7018 22.9401 39.9647 24.2051C41.0283 25.2991 41.8592 26.6325 42.391 28.1026C42.8893 29.5383 43.1553 31.0086 43.1553 32.5469C43.1553 35.487 42.4905 37.9146 41.1613 39.829C39.8317 41.7436 37.9707 43.1795 35.8102 43.9999C33.5504 44.8547 31.0575 45.1622 28.3323 45.1622C27.5348 45.1622 27.0027 45.1622 26.6706 45.1281C26.3382 45.0939 25.8728 45.0939 25.2415 45.0939V56.0682C25.2747 56.3077 25.1085 56.5128 24.8757 56.5469C24.8425 56.5469 24.8093 56.5469 24.7429 56.5469H18.4281C18.1622 56.5469 18.0293 56.4101 18.0293 56.1026ZM25.2747 27.1451V38.6325C25.7398 38.6667 26.172 38.7008 26.5708 38.7008H28.3323C29.6284 38.7008 30.9247 38.4957 32.1544 38.0855C33.218 37.7777 34.1485 37.1281 34.8797 36.2735C35.5776 35.4188 35.91 34.2562 35.91 32.752C35.9432 31.6921 35.6774 30.6325 35.1457 29.7092C34.5805 28.8205 33.7829 28.1367 32.819 27.7607C31.5892 27.2478 30.26 27.0427 28.8972 27.0769C28.0331 27.0769 27.2688 27.0769 26.6372 27.111C25.9727 27.0769 25.5073 27.111 25.2747 27.1451Z" fill="#31A8FF"/>
<path d="M63.8949 36.5469C62.8977 35.9999 61.8342 35.6239 60.7043 35.3846C59.4746 35.111 58.2449 34.94 56.982 34.94C56.3172 34.9059 55.6192 35.0086 54.9879 35.1795C54.5557 35.282 54.1901 35.5212 53.9576 35.8631C53.7914 36.1367 53.6916 36.4786 53.6916 36.7862C53.6916 37.0939 53.8246 37.4017 54.0239 37.6751C54.3231 38.0511 54.7219 38.3589 55.1538 38.5981C55.9184 39.0086 56.716 39.3846 57.5137 39.7265C59.3084 40.3418 61.0367 41.1966 62.632 42.2221C63.7287 42.94 64.626 43.8975 65.2576 45.0598C65.7894 46.1538 66.0551 47.3505 66.022 48.5811C66.0551 50.1879 65.59 51.7948 64.7259 53.1281C63.7951 54.4957 62.499 55.5556 61.0035 56.1709C59.3748 56.8888 57.3807 57.2649 54.9879 57.2649C53.459 57.2649 51.9633 57.1281 50.4678 56.8206C49.3044 56.6152 48.1413 56.2392 47.0778 55.7265C46.845 55.5897 46.679 55.3505 46.7122 55.0769V49.1281C46.7122 49.0257 46.7454 48.8888 46.845 48.8206C46.9448 48.752 47.0446 48.7862 47.1442 48.8547C48.4405 49.6409 49.803 50.1879 51.2653 50.5299C52.5285 50.8718 53.8577 51.0427 55.1873 51.0427C56.4502 51.0427 57.3475 50.8718 57.9457 50.564C58.4774 50.3248 58.843 49.7436 58.843 49.1281C58.843 48.6496 58.5772 48.205 58.0455 47.7607C57.5137 47.3161 56.417 46.8035 54.7883 46.1538C53.0934 45.5385 51.5313 44.7179 50.069 43.6921C49.0387 42.94 48.1745 41.9487 47.5429 40.7862C47.0112 39.6921 46.7454 38.4957 46.7786 37.299C46.7786 35.829 47.1774 34.4272 47.9085 33.1622C48.7395 31.7948 49.9692 30.7008 51.3983 30.017C52.9604 29.1966 54.9213 28.8206 57.2812 28.8206C58.6436 28.8206 60.0395 28.923 61.4023 29.1281C62.3992 29.2649 63.3631 29.5385 64.2605 29.9146C64.3935 29.9487 64.5265 30.0855 64.5929 30.2221C64.626 30.3589 64.6592 30.4957 64.6592 30.6325V36.205C64.6592 36.3418 64.5929 36.4786 64.493 36.5469C64.1941 36.6152 64.0279 36.6152 63.8949 36.5469Z" fill="#31A8FF"/>
</g>
<defs>
<clipPath id="clip0_63899_385">
<rect width="80" height="80" fill="white"/>
</clipPath>
</defs>
</svg>
