<svg width="80" height="80" viewBox="0 0 80 80" fill="none" xmlns="http://www.w3.org/2000/svg">
<g clip-path="url(#clip0_63899_392)">
<path d="M47.0334 39.9259C47.0334 35.5124 43.8427 31.9338 39.9064 31.9338C35.9705 31.9338 32.7793 35.5124 32.7793 39.9259C32.7793 44.34 35.9705 47.9182 39.9064 47.9182C43.8427 47.9182 47.0334 44.34 47.0334 39.9259Z" fill="#53C1DE"/>
<path fill-rule="evenodd" clip-rule="evenodd" d="M63.0533 25.0883C64.5582 18.2301 66.4502 5.51223 59.781 1.20049C53.143 -3.09247 44.5048 5.13363 39.9434 10.0713C35.3956 5.18283 26.5147 -3.0081 19.8512 1.31735C13.2157 5.62472 15.2619 18.1317 16.8004 25.0329C10.6106 27.0042 0 31.2504 0 39.9259C0 48.5766 10.5996 53.1964 16.7527 55.1658C15.2086 62.1053 13.2648 74.4335 19.9088 78.7315C26.5971 83.0561 35.4504 75.0599 40.0539 70.0682C44.6444 75.0351 53.1996 83.0835 59.8389 78.7734C66.4992 74.4501 64.7646 61.9029 63.2261 54.9615C69.1907 52.9876 79.813 48.4685 79.813 39.9259C79.813 31.3339 69.1454 27.0533 63.0533 25.0883ZM62.2972 51.2831C61.2871 47.6971 59.9235 43.884 58.2557 39.9451C59.8477 36.0987 61.1582 32.3348 62.1403 28.7719C66.6064 30.2239 76.4038 33.5425 76.4038 39.9259C76.4038 46.3693 67.002 49.7191 62.2972 51.2831ZM58.1304 75.4645C53.1768 78.6799 45.8183 70.9833 42.4281 67.3258C44.6771 64.5674 46.9246 61.3605 49.1182 57.7996C52.977 57.416 56.6221 56.7882 59.928 55.9315C61.0106 60.8412 63.1061 72.2346 58.1304 75.4645ZM21.6124 75.4188C16.6581 72.2155 18.9225 61.2141 20.0585 56.1025C23.3275 56.9135 26.9465 57.497 30.8141 57.8487C33.0221 61.3329 35.3348 64.5357 37.6654 67.3406C34.7861 70.4639 26.5896 78.6369 21.6124 75.4188ZM3.40933 39.9259C3.40933 33.4584 13.148 30.1641 17.7159 28.7157C18.7148 32.3583 20.0249 36.1674 21.606 40.0192C20.0045 43.9279 18.6756 47.7973 17.6675 51.4832C13.312 50.0849 3.40933 46.3972 3.40933 39.9259ZM21.5594 4.62628C26.5339 1.39741 34.2524 9.26101 37.5545 12.8004C35.2358 15.5924 32.9443 18.7711 30.7554 22.2354C27.0018 22.6255 23.4084 23.252 20.1051 24.0914C18.8658 18.5253 16.5903 7.85166 21.5594 4.62628ZM51.5573 26.3911C54.1039 26.7514 56.5439 27.2307 58.8347 27.8173C58.147 30.2893 57.2897 32.8741 56.2802 35.5241C54.8166 32.4102 53.2457 29.3587 51.5573 26.3911ZM39.9445 15.5326C41.5171 17.443 43.0922 19.5763 44.6415 21.8908C41.4988 21.724 38.3509 21.7234 35.2082 21.8883C36.7589 19.5953 38.3474 17.4652 39.9445 15.5326ZM23.5622 35.5213C22.5693 32.8805 21.7197 30.2842 21.026 27.7769C23.3032 27.2056 25.7317 26.7384 28.2619 26.3839C26.5686 29.3452 25.0004 32.3954 23.5622 35.5213ZM28.3344 53.7406C25.7209 53.4134 23.2555 52.9702 20.979 52.4146C21.6837 49.863 22.5518 47.2107 23.566 44.5132C25.0241 47.6716 26.6164 50.7514 28.3344 53.7406ZM40.0389 64.5891C38.423 62.6339 36.8111 60.4711 35.2369 58.1449C38.3976 58.284 41.5642 58.2842 44.7246 58.1263C43.1704 60.4948 41.6009 62.6607 40.0389 64.5891ZM56.3127 44.376C57.3794 47.1029 58.2787 49.7406 58.9929 52.249C56.6787 52.8412 54.1803 53.3181 51.5478 53.6723C53.2486 50.6482 54.8446 47.5497 56.3127 44.376ZM47.2155 54.1357C42.381 54.5232 37.5165 54.5189 32.6802 54.1674C29.9324 49.6662 27.486 44.9324 25.3744 40.0179C27.4758 35.1136 29.9043 30.389 32.6393 25.8947C37.4789 25.4846 42.3483 25.4834 47.1878 25.8973C49.8994 30.3911 52.324 35.1034 54.4743 39.9635C52.3496 44.8652 49.9085 49.5995 47.2155 54.1357ZM58.078 4.51262C63.0539 7.73089 60.8391 19.1608 59.752 24.1311C56.4409 23.2742 52.8451 22.6366 49.0804 22.2403C46.8873 18.7386 44.615 15.5544 42.3339 12.7984C45.6782 9.1828 53.1505 1.32582 58.078 4.51262Z" fill="#53C1DE"/>
</g>
<defs>
<clipPath id="clip0_63899_392">
<rect width="80" height="80" fill="white"/>
</clipPath>
</defs>
</svg>
