<svg width="80" height="60" viewBox="0 0 80 60" fill="none" xmlns="http://www.w3.org/2000/svg">
<g clip-path="url(#clip0_63899_401)">
<path d="M20 20C22.6666 6.66667 29.3334 0 40 0C56 0 58 15 66 17.5C71.3334 19.1667 76 16.6667 80 10C77.3334 23.3333 70.6666 30 60 30C44 30 42 15 34 12.5C28.6666 10.8333 24 13.3333 20 20ZM0 50C2.66666 36.6667 9.33334 30 20 30C36 30 38 45 46 47.5C51.3334 49.1667 56 46.6667 60 40C57.3334 53.3333 50.6666 60 40 60C24 60 22 45 14 42.5C8.66666 40.8333 4 43.3333 0 50Z" fill="#44A8B3"/>
</g>
<defs>
<clipPath id="clip0_63899_401">
<rect width="80" height="60" fill="white"/>
</clipPath>
</defs>
</svg>
