<svg width="80" height="80" viewBox="0 0 80 80" fill="none" xmlns="http://www.w3.org/2000/svg">
<g clip-path="url(#clip0_63899_395)">
<path d="M72.1875 0H7.81251C3.49778 0 0 3.49778 0 7.81251V72.1875C0 76.5022 3.49778 80 7.81251 80H72.1875C76.5022 80 80 76.5022 80 72.1875V7.81251C80 3.49778 76.5022 0 72.1875 0Z" fill="#3178C6"/>
<path fill-rule="evenodd" clip-rule="evenodd" d="M49.5218 63.6601V71.482C50.7934 72.134 52.2971 72.6227 54.0334 72.9485C55.7697 73.2746 57.5995 73.4374 59.5233 73.4374C61.3982 73.4374 63.1791 73.2583 64.8665 72.8996C66.5536 72.5411 68.0334 71.9506 69.305 71.1274C70.5763 70.3047 71.5832 69.229 72.3248 67.9009C73.0665 66.5727 73.4375 64.9312 73.4375 62.9755C73.4375 61.5577 73.2257 60.3154 72.8018 59.2479C72.3778 58.1806 71.7666 57.2313 70.9676 56.4002C70.1689 55.5692 69.2112 54.8237 68.0943 54.1636C66.9776 53.5037 65.7182 52.8802 64.3162 52.2937C63.2892 51.87 62.3681 51.4586 61.5529 51.0593C60.7378 50.6599 60.0451 50.2527 59.4744 49.8372C58.9037 49.4216 58.4637 48.9816 58.1539 48.5172C57.8443 48.0527 57.6892 47.5271 57.6892 46.9404C57.6892 46.4028 57.8278 45.9179 58.105 45.4861C58.3822 45.0543 58.7735 44.6836 59.2787 44.374C59.7842 44.0644 60.4036 43.8239 61.1371 43.6527C61.8708 43.4818 62.6859 43.3962 63.5827 43.3962C64.2346 43.3962 64.9236 43.4451 65.6489 43.5429C66.3743 43.6405 67.1039 43.7913 67.8377 43.9949C68.5712 44.1987 69.2843 44.4555 69.9773 44.7651C70.6701 45.0746 71.3101 45.4331 71.8968 45.8405V38.532C70.7068 38.0757 69.4066 37.7376 67.9967 37.5174C66.5865 37.2976 64.9684 37.1875 63.1424 37.1875C61.2838 37.1875 59.5233 37.3872 57.8604 37.7865C56.1977 38.1857 54.7345 38.8089 53.4708 39.6563C52.2074 40.5037 51.2092 41.5832 50.4754 42.895C49.7419 44.2069 49.375 45.7753 49.375 47.6005C49.375 49.9307 50.0474 51.919 51.3926 53.5648C52.7373 55.2107 54.7791 56.6038 57.5182 57.7447C58.5941 58.1847 59.5967 58.6163 60.5259 59.0402C61.455 59.4639 62.2581 59.9039 62.9345 60.3602C63.6112 60.8163 64.145 61.3134 64.5363 61.8512C64.9276 62.3888 65.1233 63 65.1233 63.6846C65.1233 64.1898 65.001 64.6581 64.7564 65.0899C64.5118 65.5218 64.1409 65.8965 63.6438 66.2143C63.1465 66.5322 62.5271 66.7806 61.7852 66.9597C61.0433 67.1391 60.1755 67.2288 59.1809 67.2288C57.4853 67.2288 55.8064 66.9315 54.1434 66.3365C52.4805 65.7419 50.9399 64.8497 49.5218 63.6601ZM36.372 44.3878H46.4064V37.9686H18.4375V44.3878H28.4229V72.9686H36.372V44.3878Z" fill="white"/>
</g>
<defs>
<clipPath id="clip0_63899_395">
<rect width="80" height="80" fill="white"/>
</clipPath>
</defs>
</svg>
