<svg width="80" height="80" viewBox="0 0 80 80" fill="none" xmlns="http://www.w3.org/2000/svg">
<g clip-path="url(#clip0_63899_405)">
<mask id="mask0_63899_405" style="mask-type:luminance" maskUnits="userSpaceOnUse" x="0" y="0" width="80" height="80">
<path d="M80 0H0V80H80V0Z" fill="white"/>
</mask>
<g mask="url(#mask0_63899_405)">
<path d="M68.5714 0H11.4286C5.11675 0 0 5.11675 0 11.4286V68.5714C0 74.8832 5.11675 80 11.4286 80H68.5714C74.8832 80 80 74.8832 80 68.5714V11.4286C80 5.11675 74.8832 0 68.5714 0Z" fill="#3A48FF"/>
<path d="M51.5719 33.0856C51.5719 33.0856 47.7146 45.2 47.4004 46.2C47.2861 45.1713 44.4575 23.4285 44.4575 23.4285C37.8861 23.4285 34.3719 28.1142 32.5146 33.0571C32.5146 33.0571 27.829 45.2 27.429 46.2285C27.4004 45.2856 26.7146 33.2 26.7146 33.2C26.3146 27.1429 20.7719 23.4571 16.2861 23.4571L21.7146 56.4C28.6004 56.3713 32.3146 51.7142 34.2575 46.7713C34.2575 46.7713 38.4004 36.0571 38.5719 35.5713C38.6004 36.0285 41.5433 56.4 41.5433 56.4C48.4575 56.4 52.1719 52.0285 54.1719 47.2571L63.8575 23.4571C57.029 23.4571 53.429 28.1142 51.5719 33.0856Z" fill="white"/>
</g>
</g>
<defs>
<clipPath id="clip0_63899_405">
<rect width="80" height="80" fill="white"/>
</clipPath>
</defs>
</svg>
