<svg width="178" height="32" viewBox="0 0 178 32" fill="none" xmlns="http://www.w3.org/2000/svg">
<path d="M45.7602 9.94205e-05L38.6322 31.1521H26.4882L22.8802 13.4641L19.2722 31.1521H7.12818L0.000175834 9.94205e-05H10.5162L13.3322 19.6241L17.5562 9.94205e-05H28.2042L32.4282 19.6241L35.2442 9.94205e-05H45.7602Z" fill="url(#paint0_linear_63822_1578)"/>
<path d="M59.031 7.7881V11.6161H68.711V18.9641H59.031V23.3641H70.031V31.1521H49.263V9.94205e-05H70.031V7.7881H59.031ZM95.7122 9.94205e-05V7.7441H83.4802V12.0561H92.2802V19.4041H83.4802V31.1521H73.7122V9.94205e-05H95.7122ZM108.789 23.7601H118.205V31.1521H99.0208V9.94205e-05H108.789V23.7601ZM131.047 7.7881V11.6161H140.727V18.9641H131.047V23.3641H142.047V31.1521H121.279V9.94205e-05H142.047V7.7881H131.047ZM165.572 31.1521L159.852 23.0561L155.1 31.1521H143.968L154.22 15.0921L143.528 9.94205e-05H155.1L160.6 7.7881L165.176 9.94205e-05H176.308L166.232 15.7521L177.144 31.1521H165.572Z" fill="url(#paint1_linear_63822_1578)"/>
<path d="M59.031 7.7881V11.6161H68.711V18.9641H59.031V23.3641H70.031V31.1521H49.263V9.94205e-05H70.031V7.7881H59.031ZM95.7122 9.94205e-05V7.7441H83.4802V12.0561H92.2802V19.4041H83.4802V31.1521H73.7122V9.94205e-05H95.7122ZM108.789 23.7601H118.205V31.1521H99.0208V9.94205e-05H108.789V23.7601ZM131.047 7.7881V11.6161H140.727V18.9641H131.047V23.3641H142.047V31.1521H121.279V9.94205e-05H142.047V7.7881H131.047ZM165.572 31.1521L159.852 23.0561L155.1 31.1521H143.968L154.22 15.0921L143.528 9.94205e-05H155.1L160.6 7.7881L165.176 9.94205e-05H176.308L166.232 15.7521L177.144 31.1521H165.572Z" fill="black"/>
<defs>
<linearGradient id="paint0_linear_63822_1578" x1="-1.59521" y1="16.1521" x2="199.107" y2="-66.7336" gradientUnits="userSpaceOnUse">
<stop stop-color="#FC2439"/>
<stop offset="0.288462" stop-color="#FFCC00"/>
</linearGradient>
<linearGradient id="paint1_linear_63822_1578" x1="-1.59521" y1="16.1521" x2="199.107" y2="-66.7336" gradientUnits="userSpaceOnUse">
<stop stop-color="#FC2439"/>
<stop offset="0.288462" stop-color="#FFCC00"/>
</linearGradient>
</defs>
</svg>
