<svg width="227" height="31" viewBox="0 0 227 31" fill="none" xmlns="http://www.w3.org/2000/svg">
<path d="M17.4038 2.46186L9.779 27.6458L3.04084 27.6457L10.9038 2.46191L17.4038 2.46186Z" fill="#FEDC29"/>
<path d="M23.0451 2.46186L15.4204 27.6458L8.6822 27.6457L16.5451 2.46191L23.0451 2.46186Z" fill="#FE7524"/>
<path d="M28.6868 2.46186L21.062 27.6458L14.3238 27.6457L22.1867 2.46191L28.6868 2.46186Z" fill="#FC2439"/>
<path d="M34.3281 2.46186L26.7033 27.6458L19.9652 27.6457L27.8281 2.46191L34.3281 2.46186Z" fill="#FF26EA"/>
<path d="M39.9697 2.46186L32.3449 27.6458L25.6068 27.6457L33.4697 2.46191L39.9697 2.46186Z" fill="#B826FC"/>
<path d="M45.6111 2.46186L37.9863 27.6458L31.2481 27.6457L39.1111 2.46191L45.6111 2.46186Z" fill="#7A25F9"/>
<path d="M55.4729 26.4269H55.5049C53.8729 25.6909 52.5929 24.5709 51.6649 23.0669C50.7369 21.5629 50.2569 19.7069 50.2569 17.5309C50.2569 15.0669 50.8649 12.6669 52.0809 10.3309C53.2969 7.99488 55.0249 6.07488 57.2649 4.60288C59.5049 3.13088 62.0649 2.39488 64.9449 2.39488C67.0889 2.39488 68.9769 2.77888 70.5769 3.54688C72.1769 4.31488 73.4249 5.40288 74.3209 6.77888C75.2169 8.15488 75.7289 9.75488 75.8249 11.5789H68.3049C68.1769 10.3949 67.7929 9.46688 67.1529 8.79488C66.5129 8.12288 65.5849 7.80288 64.3369 7.80288C63.0249 7.80288 61.8729 8.25088 60.8489 9.14688C59.8249 10.0429 59.0249 11.2269 58.4489 12.7309C57.8729 14.2349 57.5849 15.8669 57.5849 17.6269C57.5849 18.5549 57.7449 19.3549 58.0649 20.0269C58.3849 20.6989 58.8649 21.2109 59.4729 21.5629C60.0809 21.9149 60.7849 22.0749 61.5849 22.0749C62.7369 22.0749 63.7929 21.7229 64.7529 21.0509C65.7129 20.3789 66.4489 19.4509 66.9929 18.2669H74.5449C73.5849 21.2109 71.9529 23.4829 69.6809 25.1149C67.4089 26.7469 64.5289 27.5469 61.0409 27.5469C58.9609 27.5469 57.1049 27.1629 55.4729 26.4269ZM98.0794 14.6829H98.0154C97.0554 16.0269 95.6474 17.0509 93.8234 17.7869L97.7914 27.0989H89.7914L86.7514 18.8749H83.9354L82.1754 27.0989H74.9114L80.0634 2.77888H90.4314C92.1274 2.77888 93.6634 3.06688 95.0394 3.64288C96.4154 4.21888 97.5034 5.05088 98.3034 6.13888C99.1034 7.22688 99.5194 8.53888 99.5194 10.0429C99.5194 11.8029 99.0394 13.3389 98.0794 14.6829ZM86.1754 8.31488L85.0874 13.4349H88.5434C89.3434 13.4349 90.0154 13.3069 90.5274 13.0189C91.0394 12.7309 91.4234 12.3789 91.6794 11.9309C91.9354 11.4829 92.0634 11.0029 92.0634 10.4909C92.0634 9.85088 91.8394 9.33888 91.3914 8.92288C90.9434 8.50688 90.3674 8.31488 89.6314 8.31488H86.1754ZM122.827 2.77888L121.579 8.53888H111.019L110.315 11.8349H120.651L119.435 17.5949H109.099L108.331 21.3389H119.147L117.931 27.0989H99.8191L104.971 2.77888H122.827ZM145.963 27.0989H138.699L138.379 21.4669H129.419L126.667 27.0989H118.987L131.467 2.77888H143.851L145.963 27.0989ZM137.387 5.05088L132.203 15.7069H138.027L137.387 5.05088ZM148.656 2.77888H169.648L168.464 8.53888H161.584L157.648 27.0989H150.384L154.288 8.53888H147.408L148.656 2.77888ZM174.239 27.0989H166.975L172.127 2.77888H179.391L174.239 27.0989ZM189.108 24.8589L198.772 2.77888H206.772L195.316 27.0989H182.388L181.236 2.77888H188.692L189.108 24.8589ZM226.483 2.77888L225.235 8.53888H214.675L213.971 11.8349H224.307L223.091 17.5949H212.755L211.987 21.3389H222.803L221.587 27.0989H203.475L208.627 2.77888H226.483Z" fill="black"/>
</svg>
