<svg width="214" height="41" viewBox="0 0 214 41" fill="none" xmlns="http://www.w3.org/2000/svg">
<g filter="url(#filter0_d_63899_350)">
<rect x="6" width="208" height="35" rx="17.5" fill="white" shape-rendering="crispEdges"/>
<rect x="6.5" y="0.5" width="207" height="34" rx="17" stroke="black" shape-rendering="crispEdges"/>
<path d="M33.3 17L40.54 25H37.24L30.32 17.32V25H27.74V9.8H30.32V16.76L36.6 9.8H39.84L33.3 17ZM44.5583 18.3V22.78H52.3383V25H41.9783V9.8H52.1583V12.02H44.5583V16.08H52.0183V18.3H44.5583ZM57.3019 24.66L57.2819 24.74C56.4019 24.34 55.6819 23.78 55.1219 23.04C54.5619 22.3 54.2219 21.44 54.0819 20.44H56.7619C56.8819 21.34 57.2619 22.02 57.9019 22.5C58.5419 22.98 59.3419 23.22 60.3019 23.22C61.0819 23.22 61.7619 23.12 62.3219 22.92C62.8819 22.72 63.3219 22.44 63.6219 22.08C63.9219 21.72 64.0619 21.3 64.0619 20.84C64.0619 20.38 63.9419 20 63.7019 19.72C63.4619 19.44 63.1219 19.22 62.6619 19.06C62.2019 18.9 61.5619 18.72 60.7219 18.54L58.6819 18.1C57.3819 17.82 56.3619 17.34 55.6219 16.66C54.8819 15.98 54.5219 15.08 54.5219 13.96C54.5219 13.14 54.7819 12.4 55.2819 11.74C55.7819 11.08 56.4619 10.56 57.3219 10.18C58.1819 9.8 59.1419 9.6 60.2019 9.6C61.3419 9.6 62.3419 9.78 63.2019 10.14C64.0619 10.5 64.7419 11 65.2619 11.64C65.7819 12.28 66.1219 13.02 66.2619 13.86H63.5819C63.3619 13.12 62.9619 12.58 62.3819 12.24C61.8019 11.9 61.0819 11.72 60.2219 11.72C59.6419 11.72 59.1219 11.8 58.6419 11.96C58.1619 12.12 57.7819 12.36 57.5019 12.66C57.2219 12.96 57.0819 13.32 57.0819 13.72C57.0819 14.14 57.1819 14.48 57.3819 14.74C57.5819 15 57.9019 15.22 58.3419 15.4C58.7819 15.58 59.4019 15.76 60.2019 15.94L62.2219 16.38C63.2419 16.6 64.0619 16.88 64.7019 17.24C65.3419 17.6 65.8219 18.04 66.1419 18.58C66.4619 19.12 66.6219 19.78 66.6219 20.56C66.6219 21.5 66.3619 22.32 65.8419 23.04C65.3219 23.76 64.5819 24.3 63.6219 24.68C62.6619 25.06 61.5419 25.26 60.2819 25.26C59.1819 25.26 58.1819 25.06 57.3019 24.66ZM79.0044 16.04V9.8H81.5844V25H79.0044V18.34H71.8044V25H69.2244V9.8H71.8044V16.04H79.0044ZM98.8042 25H96.0842L94.6242 20.64H87.5242L86.0642 25H83.3442L88.6042 9.8H93.5442L98.8042 25ZM91.0842 10.12L88.2642 18.44H93.8842L91.0842 10.12ZM105.395 24.68L110.035 9.8H112.835L107.935 25H102.855L97.935 9.8H100.755L105.395 24.68ZM124.488 9.8C126.028 9.8 127.368 10.08 128.508 10.66C129.648 11.24 130.528 12.1 131.148 13.24C131.768 14.38 132.088 15.76 132.088 17.4C132.088 19.04 131.768 20.42 131.148 21.56C130.528 22.7 129.648 23.56 128.508 24.14C127.368 24.72 126.028 25 124.488 25H119.088V9.8H124.488ZM124.548 22.78C125.568 22.78 126.448 22.58 127.188 22.16C127.928 21.74 128.488 21.12 128.868 20.32C129.248 19.52 129.448 18.54 129.448 17.4C129.448 16.26 129.248 15.28 128.868 14.48C128.488 13.68 127.928 13.06 127.188 12.64C126.448 12.22 125.568 12.02 124.548 12.02H121.668V22.78H124.548ZM137.371 25H134.791V9.8H137.371V25ZM146.625 24.68L151.265 9.8H154.065L149.165 25H144.085L139.165 9.8H141.985L146.625 24.68ZM168.668 25H165.948L164.487 20.64H157.388L155.928 25H153.208L158.467 9.8H163.408L168.668 25ZM160.948 10.12L158.128 18.44H163.747L160.948 10.12ZM167.336 9.8H179.716V12.02H174.816V25H172.236V12.02H167.336V9.8ZM184.383 18.3V22.78H192.163V25H181.803V9.8H191.983V12.02H184.383V16.08H191.843V18.3H184.383Z" fill="black"/>
</g>
<defs>
<filter id="filter0_d_63899_350" x="0" y="0" width="214" height="41" filterUnits="userSpaceOnUse" color-interpolation-filters="sRGB">
<feFlood flood-opacity="0" result="BackgroundImageFix"/>
<feColorMatrix in="SourceAlpha" type="matrix" values="0 0 0 0 0 0 0 0 0 0 0 0 0 0 0 0 0 0 127 0" result="hardAlpha"/>
<feOffset dx="-6" dy="6"/>
<feComposite in2="hardAlpha" operator="out"/>
<feColorMatrix type="matrix" values="0 0 0 0 0.988235 0 0 0 0 0.141176 0 0 0 0 0.223529 0 0 0 1 0"/>
<feBlend mode="normal" in2="BackgroundImageFix" result="effect1_dropShadow_63899_350"/>
<feBlend mode="normal" in="SourceGraphic" in2="effect1_dropShadow_63899_350" result="shape"/>
</filter>
</defs>
</svg>
