<svg width="466" height="41" viewBox="0 0 466 41" fill="none" xmlns="http://www.w3.org/2000/svg">
<g filter="url(#filter0_d_63899_354)">
<rect x="6" width="460" height="35" rx="17.5" fill="white" shape-rendering="crispEdges"/>
<rect x="6.5" y="0.5" width="459" height="34" rx="17" stroke="black" shape-rendering="crispEdges"/>
<path d="M36.98 9.8H39.92L34.18 18.66V25H31.62V18.66L25.88 9.8H28.8L32.9 16.2L36.98 9.8ZM43.3702 24.26C42.2502 23.6 41.3702 22.68 40.7502 21.5C40.1302 20.32 39.8102 18.96 39.8102 17.42C39.8102 15.88 40.1302 14.52 40.7502 13.34C41.3702 12.16 42.2502 11.24 43.3702 10.58C44.4902 9.92 45.7702 9.6 47.2302 9.6C48.6902 9.6 49.9702 9.92 51.0902 10.58C52.2102 11.24 53.0902 12.16 53.7102 13.34C54.3302 14.52 54.6502 15.88 54.6502 17.42C54.6502 18.96 54.3302 20.32 53.7102 21.5C53.0902 22.68 52.2102 23.6 51.0902 24.26C49.9702 24.92 48.6902 25.24 47.2302 25.24C45.7702 25.24 44.4902 24.92 43.3702 24.26ZM49.7102 22.42C50.4302 21.94 50.9902 21.26 51.3902 20.4C51.7902 19.54 51.9902 18.54 51.9902 17.4C51.9902 16.26 51.7902 15.26 51.3902 14.4C50.9902 13.54 50.4302 12.86 49.7102 12.38C48.9902 11.9 48.1702 11.66 47.2302 11.66C46.2902 11.66 45.4702 11.9 44.7502 12.38C44.0302 12.86 43.4702 13.54 43.0702 14.4C42.6702 15.26 42.4702 16.26 42.4702 17.4C42.4702 18.54 42.6702 19.54 43.0702 20.4C43.4702 21.26 44.0302 21.94 44.7502 22.42C45.4702 22.9 46.2902 23.14 47.2302 23.14C48.1702 23.14 48.9902 22.9 49.7102 22.42ZM57.1308 18.94V18.92V9.82H59.7108V19.12V19.16C59.7108 21.82 60.9108 23.16 63.2908 23.16C65.6708 23.16 66.8508 21.82 66.8508 19.12V9.82H69.4308V18.92C69.4308 20.98 68.9308 22.54 67.9508 23.62C66.9708 24.7 65.4108 25.24 63.2908 25.24C59.1908 25.24 57.1308 23.14 57.1308 18.94ZM82.0395 25L78.5595 19.08H75.3395V25.02H72.7595V9.82H78.5795C79.7395 9.82 80.7395 10 81.5995 10.38C82.4595 10.76 83.1195 11.3 83.5795 12C84.0395 12.7 84.2795 13.52 84.2795 14.46C84.2795 15.48 84.0195 16.34 83.4795 17.06C82.9395 17.78 82.1795 18.32 81.1995 18.66L85.0195 25H82.0395ZM75.3395 12.04L75.3195 16.88H78.6195C79.5595 16.88 80.2995 16.66 80.8195 16.24C81.3395 15.82 81.5995 15.22 81.5995 14.46C81.5995 13.7 81.3395 13.1 80.8195 12.68C80.2995 12.26 79.5795 12.04 78.6395 12.04H75.3395ZM105.328 25H102.608L101.148 20.64H94.0477L92.5877 25H89.8677L95.1277 9.8H100.068L105.328 25ZM97.6077 10.12L94.7877 18.44H100.408L97.6077 10.12ZM112.895 9.8V9.84C114.155 9.84 115.235 10.02 116.135 10.4C117.035 10.78 117.715 11.34 118.195 12.06C118.675 12.78 118.915 13.66 118.915 14.68C118.915 15.7 118.675 16.58 118.195 17.3C117.715 18.02 117.035 18.58 116.135 18.96C115.235 19.34 114.155 19.52 112.895 19.52H109.675V25H107.095V9.8H112.895ZM112.955 17.36V17.34C114.015 17.34 114.815 17.12 115.375 16.68C115.935 16.24 116.215 15.58 116.215 14.7C116.215 13.82 115.935 13.16 115.375 12.72C114.815 12.28 114.015 12.06 112.955 12.06H109.675V17.36H112.955ZM126.978 9.8V9.84C128.238 9.84 129.318 10.02 130.218 10.4C131.118 10.78 131.798 11.34 132.278 12.06C132.758 12.78 132.998 13.66 132.998 14.68C132.998 15.7 132.758 16.58 132.278 17.3C131.798 18.02 131.118 18.58 130.218 18.96C129.318 19.34 128.238 19.52 126.978 19.52H123.758V25H121.178V9.8H126.978ZM127.038 17.36V17.34C128.098 17.34 128.898 17.12 129.458 16.68C130.018 16.24 130.298 15.58 130.298 14.7C130.298 13.82 130.018 13.16 129.458 12.72C128.898 12.28 128.098 12.06 127.038 12.06H123.758V17.36H127.038ZM144.898 9.8C146.438 9.8 147.778 10.08 148.918 10.66C150.058 11.24 150.938 12.1 151.558 13.24C152.178 14.38 152.498 15.76 152.498 17.4C152.498 19.04 152.178 20.42 151.558 21.56C150.938 22.7 150.058 23.56 148.918 24.14C147.778 24.72 146.438 25 144.898 25H139.498V9.8H144.898ZM144.958 22.78C145.978 22.78 146.858 22.58 147.598 22.16C148.338 21.74 148.898 21.12 149.278 20.32C149.658 19.52 149.858 18.54 149.858 17.4C149.858 16.26 149.658 15.28 149.278 14.48C148.898 13.68 148.338 13.06 147.598 12.64C146.858 12.22 145.978 12.02 144.958 12.02H142.078V22.78H144.958ZM157.781 18.3V22.78H165.561V25H155.201V9.8H165.381V12.02H157.781V16.08H165.241V18.3H157.781ZM170.525 24.66L170.505 24.74C169.625 24.34 168.905 23.78 168.345 23.04C167.785 22.3 167.445 21.44 167.305 20.44H169.985C170.105 21.34 170.485 22.02 171.125 22.5C171.765 22.98 172.565 23.22 173.525 23.22C174.305 23.22 174.985 23.12 175.545 22.92C176.105 22.72 176.545 22.44 176.845 22.08C177.145 21.72 177.285 21.3 177.285 20.84C177.285 20.38 177.165 20 176.925 19.72C176.685 19.44 176.345 19.22 175.885 19.06C175.425 18.9 174.785 18.72 173.945 18.54L171.905 18.1C170.605 17.82 169.585 17.34 168.845 16.66C168.105 15.98 167.745 15.08 167.745 13.96C167.745 13.14 168.005 12.4 168.505 11.74C169.005 11.08 169.685 10.56 170.545 10.18C171.405 9.8 172.365 9.6 173.425 9.6C174.565 9.6 175.565 9.78 176.425 10.14C177.285 10.5 177.965 11 178.485 11.64C179.005 12.28 179.345 13.02 179.485 13.86H176.805C176.585 13.12 176.185 12.58 175.605 12.24C175.025 11.9 174.305 11.72 173.445 11.72C172.865 11.72 172.345 11.8 171.865 11.96C171.385 12.12 171.005 12.36 170.725 12.66C170.445 12.96 170.305 13.32 170.305 13.72C170.305 14.14 170.405 14.48 170.605 14.74C170.805 15 171.125 15.22 171.565 15.4C172.005 15.58 172.625 15.76 173.425 15.94L175.445 16.38C176.465 16.6 177.285 16.88 177.925 17.24C178.565 17.6 179.045 18.04 179.365 18.58C179.685 19.12 179.845 19.78 179.845 20.56C179.845 21.5 179.585 22.32 179.065 23.04C178.545 23.76 177.805 24.3 176.845 24.68C175.885 25.06 174.765 25.26 173.505 25.26C172.405 25.26 171.405 25.06 170.525 24.66ZM185.027 18.3V22.78H192.807V25H182.447V9.8H192.627V12.02H185.027V16.08H192.487V18.3H185.027ZM204.911 25L201.431 19.08H198.211V25.02H195.631V9.82H201.451C202.611 9.82 203.611 10 204.471 10.38C205.331 10.76 205.991 11.3 206.451 12C206.911 12.7 207.151 13.52 207.151 14.46C207.151 15.48 206.891 16.34 206.351 17.06C205.811 17.78 205.051 18.32 204.071 18.66L207.891 25H204.911ZM198.211 12.04L198.191 16.88H201.491C202.431 16.88 203.171 16.66 203.691 16.24C204.211 15.82 204.471 15.22 204.471 14.46C204.471 13.7 204.211 13.1 203.691 12.68C203.171 12.26 202.451 12.04 201.511 12.04H198.211ZM215.629 24.68L220.269 9.8H223.069L218.169 25H213.089L208.169 9.8H210.989L215.629 24.68ZM227.468 18.3V22.78H235.248V25H224.888V9.8H235.068V12.02H227.468V16.08H234.928V18.3H227.468ZM240.212 24.66L240.192 24.74C239.312 24.34 238.592 23.78 238.032 23.04C237.472 22.3 237.132 21.44 236.992 20.44H239.672C239.792 21.34 240.172 22.02 240.812 22.5C241.452 22.98 242.252 23.22 243.212 23.22C243.992 23.22 244.672 23.12 245.232 22.92C245.792 22.72 246.232 22.44 246.532 22.08C246.832 21.72 246.972 21.3 246.972 20.84C246.972 20.38 246.852 20 246.612 19.72C246.372 19.44 246.032 19.22 245.572 19.06C245.112 18.9 244.472 18.72 243.632 18.54L241.592 18.1C240.292 17.82 239.272 17.34 238.532 16.66C237.792 15.98 237.432 15.08 237.432 13.96C237.432 13.14 237.692 12.4 238.192 11.74C238.692 11.08 239.372 10.56 240.232 10.18C241.092 9.8 242.052 9.6 243.112 9.6C244.252 9.6 245.252 9.78 246.112 10.14C246.972 10.5 247.652 11 248.172 11.64C248.692 12.28 249.032 13.02 249.172 13.86H246.492C246.272 13.12 245.872 12.58 245.292 12.24C244.712 11.9 243.992 11.72 243.132 11.72C242.552 11.72 242.032 11.8 241.552 11.96C241.072 12.12 240.692 12.36 240.412 12.66C240.132 12.96 239.992 13.32 239.992 13.72C239.992 14.14 240.092 14.48 240.292 14.74C240.492 15 240.812 15.22 241.252 15.4C241.692 15.58 242.312 15.76 243.112 15.94L245.132 16.38C246.152 16.6 246.972 16.88 247.612 17.24C248.252 17.6 248.732 18.04 249.052 18.58C249.372 19.12 249.532 19.78 249.532 20.56C249.532 21.5 249.272 22.32 248.752 23.04C248.232 23.76 247.492 24.3 246.532 24.68C245.572 25.06 244.452 25.26 243.192 25.26C242.092 25.26 241.092 25.06 240.212 24.66ZM267.679 18.18L267.659 18.12C268.399 18.72 268.779 19.58 268.779 20.72C268.779 21.62 268.559 22.38 268.119 23.02C267.679 23.66 267.019 24.14 266.139 24.48C265.259 24.82 264.199 24.98 262.959 24.98H256.939V9.78H262.919C264.139 9.78 265.159 9.96 265.959 10.32C266.759 10.68 267.339 11.16 267.719 11.76C268.099 12.36 268.279 13.02 268.279 13.76C268.279 14.42 268.119 15 267.799 15.5C267.479 16 267.039 16.38 266.459 16.66C265.879 16.94 265.219 17.12 264.459 17.2C265.859 17.26 266.939 17.58 267.679 18.18ZM259.519 11.98V16.06H262.979C264.719 16.06 265.599 15.38 265.599 14.04C265.599 13.36 265.379 12.84 264.919 12.5C264.459 12.16 263.819 11.98 262.979 11.98H259.519ZM263.079 22.76V22.8C264.099 22.8 264.859 22.6 265.359 22.22C265.859 21.84 266.119 21.28 266.119 20.54C266.119 19.8 265.859 19.24 265.359 18.86C264.859 18.48 264.099 18.28 263.079 18.28H259.519V22.76H263.079ZM273.992 18.3V22.78H281.772V25H271.412V9.8H281.592V12.02H273.992V16.08H281.452V18.3H273.992ZM283.117 9.8H295.497V12.02H290.597V25H288.017V12.02H283.117V9.8ZM296.184 9.8H308.564V12.02H303.664V25H301.084V12.02H296.184V9.8ZM313.23 18.3V22.78H321.01V25H310.65V9.8H320.83V12.02H313.23V16.08H320.69V18.3H313.23ZM333.114 25L329.634 19.08H326.414V25.02H323.834V9.82H329.654C330.814 9.82 331.814 10 332.674 10.38C333.534 10.76 334.194 11.3 334.654 12C335.114 12.7 335.354 13.52 335.354 14.46C335.354 15.48 335.094 16.34 334.554 17.06C334.014 17.78 333.254 18.32 332.274 18.66L336.094 25H333.114ZM326.414 12.04L326.394 16.88H329.694C330.634 16.88 331.374 16.66 331.894 16.24C332.414 15.82 332.674 15.22 332.674 14.46C332.674 13.7 332.414 13.1 331.894 12.68C331.374 12.26 330.654 12.04 329.714 12.04H326.414ZM345.831 24.28H345.851C344.751 23.64 343.891 22.72 343.251 21.52C342.611 20.32 342.291 18.94 342.291 17.4C342.291 15.84 342.611 14.46 343.231 13.28C343.851 12.1 344.711 11.18 345.811 10.54C346.911 9.9 348.151 9.58 349.531 9.58C350.691 9.58 351.751 9.8 352.711 10.24C353.671 10.68 354.471 11.3 355.111 12.1C355.751 12.9 356.211 13.84 356.471 14.9H353.771C353.431 13.92 352.911 13.14 352.211 12.56C351.511 11.98 350.611 11.68 349.511 11.68C348.591 11.68 347.791 11.92 347.091 12.4C346.391 12.88 345.851 13.56 345.471 14.42C345.091 15.28 344.911 16.28 344.911 17.42C344.911 18.56 345.111 19.56 345.511 20.42C345.911 21.28 346.451 21.96 347.151 22.44C347.851 22.92 348.631 23.16 349.511 23.16C350.611 23.16 351.531 22.88 352.271 22.32C353.011 21.76 353.551 20.96 353.911 19.92H356.591C356.091 21.68 355.231 23 354.011 23.9C352.791 24.8 351.291 25.24 349.511 25.24C348.151 25.24 346.931 24.92 345.831 24.28ZM361.492 9.8V22.78H368.272V25H358.912V9.8H361.492ZM372.198 24.26C371.078 23.6 370.198 22.68 369.578 21.5C368.958 20.32 368.638 18.96 368.638 17.42C368.638 15.88 368.958 14.52 369.578 13.34C370.198 12.16 371.078 11.24 372.198 10.58C373.318 9.92 374.598 9.6 376.058 9.6C377.518 9.6 378.798 9.92 379.918 10.58C381.038 11.24 381.918 12.16 382.538 13.34C383.158 14.52 383.478 15.88 383.478 17.42C383.478 18.96 383.158 20.32 382.538 21.5C381.918 22.68 381.038 23.6 379.918 24.26C378.798 24.92 377.518 25.24 376.058 25.24C374.598 25.24 373.318 24.92 372.198 24.26ZM378.538 22.42C379.258 21.94 379.818 21.26 380.218 20.4C380.618 19.54 380.818 18.54 380.818 17.4C380.818 16.26 380.618 15.26 380.218 14.4C379.818 13.54 379.258 12.86 378.538 12.38C377.818 11.9 376.998 11.66 376.058 11.66C375.118 11.66 374.298 11.9 373.578 12.38C372.858 12.86 372.298 13.54 371.898 14.4C371.498 15.26 371.298 16.26 371.298 17.4C371.298 18.54 371.498 19.54 371.898 20.4C372.298 21.26 372.858 21.94 373.578 22.42C374.298 22.9 375.118 23.14 376.058 23.14C376.998 23.14 377.818 22.9 378.538 22.42ZM383.899 9.8H396.279V12.02H391.379V25H388.799V12.02H383.899V9.8ZM408.145 16.04V9.8H410.725V25H408.145V18.34H400.945V25H398.365V9.8H400.945V16.04H408.145ZM416.785 18.3V22.78H424.565V25H414.205V9.8H424.385V12.02H416.785V16.08H424.245V18.3H416.785ZM429.528 24.66L429.508 24.74C428.628 24.34 427.908 23.78 427.348 23.04C426.788 22.3 426.448 21.44 426.308 20.44H428.988C429.108 21.34 429.488 22.02 430.128 22.5C430.768 22.98 431.568 23.22 432.528 23.22C433.308 23.22 433.988 23.12 434.548 22.92C435.108 22.72 435.548 22.44 435.848 22.08C436.148 21.72 436.288 21.3 436.288 20.84C436.288 20.38 436.168 20 435.928 19.72C435.688 19.44 435.348 19.22 434.888 19.06C434.428 18.9 433.788 18.72 432.948 18.54L430.908 18.1C429.608 17.82 428.588 17.34 427.848 16.66C427.108 15.98 426.748 15.08 426.748 13.96C426.748 13.14 427.008 12.4 427.508 11.74C428.008 11.08 428.688 10.56 429.548 10.18C430.408 9.8 431.368 9.6 432.428 9.6C433.568 9.6 434.568 9.78 435.428 10.14C436.288 10.5 436.968 11 437.488 11.64C438.008 12.28 438.348 13.02 438.488 13.86H435.808C435.588 13.12 435.188 12.58 434.608 12.24C434.028 11.9 433.308 11.72 432.448 11.72C431.868 11.72 431.348 11.8 430.868 11.96C430.388 12.12 430.008 12.36 429.728 12.66C429.448 12.96 429.308 13.32 429.308 13.72C429.308 14.14 429.408 14.48 429.608 14.74C429.808 15 430.128 15.22 430.568 15.4C431.008 15.58 431.628 15.76 432.428 15.94L434.448 16.38C435.468 16.6 436.288 16.88 436.928 17.24C437.568 17.6 438.048 18.04 438.368 18.58C438.688 19.12 438.848 19.78 438.848 20.56C438.848 21.5 438.588 22.32 438.068 23.04C437.548 23.76 436.808 24.3 435.848 24.68C434.888 25.06 433.768 25.26 432.508 25.26C431.408 25.26 430.408 25.06 429.528 24.66ZM443.951 25H441.111V22.28H443.951V25Z" fill="black"/>
</g>
<defs>
<filter id="filter0_d_63899_354" x="0" y="0" width="466" height="41" filterUnits="userSpaceOnUse" color-interpolation-filters="sRGB">
<feFlood flood-opacity="0" result="BackgroundImageFix"/>
<feColorMatrix in="SourceAlpha" type="matrix" values="0 0 0 0 0 0 0 0 0 0 0 0 0 0 0 0 0 0 127 0" result="hardAlpha"/>
<feOffset dx="-6" dy="6"/>
<feComposite in2="hardAlpha" operator="out"/>
<feColorMatrix type="matrix" values="0 0 0 0 0.00392157 0 0 0 0 0.780392 0 0 0 0 0.996078 0 0 0 1 0"/>
<feBlend mode="normal" in2="BackgroundImageFix" result="effect1_dropShadow_63899_354"/>
<feBlend mode="normal" in="SourceGraphic" in2="effect1_dropShadow_63899_354" result="shape"/>
</filter>
</defs>
</svg>
