<svg width="227" height="31" viewBox="0 0 227 31" fill="none" xmlns="http://www.w3.org/2000/svg">
<path d="M17.4038 2.46198L9.779 27.6459L3.04084 27.6458L10.9038 2.46204L17.4038 2.46198Z" fill="#FEDC29"/>
<path d="M23.0453 2.46198L15.4205 27.6459L8.68232 27.6458L16.5453 2.46204L23.0453 2.46198Z" fill="#FE7524"/>
<path d="M28.6868 2.46198L21.062 27.6459L14.3238 27.6458L22.1867 2.46204L28.6868 2.46198Z" fill="#FC2439"/>
<path d="M34.3282 2.46198L26.7034 27.6459L19.9653 27.6458L27.8282 2.46204L34.3282 2.46198Z" fill="#FF26EA"/>
<path d="M39.9697 2.46198L32.3449 27.6459L25.6067 27.6458L33.4697 2.46204L39.9697 2.46198Z" fill="#B826FC"/>
<path d="M45.6112 2.46198L37.9864 27.6459L31.2482 27.6458L39.1112 2.46204L45.6112 2.46198Z" fill="#7A25F9"/>
<path d="M55.4729 26.427H55.5049C53.8729 25.691 52.5929 24.571 51.6649 23.067C50.7369 21.563 50.2569 19.707 50.2569 17.531C50.2569 15.067 50.8649 12.667 52.0809 10.331C53.2969 7.995 55.0249 6.075 57.2649 4.603C59.5049 3.131 62.0649 2.395 64.9449 2.395C67.0889 2.395 68.9769 2.779 70.5769 3.547C72.1769 4.315 73.4249 5.403 74.3209 6.779C75.2169 8.155 75.7289 9.755 75.8249 11.579H68.3049C68.1769 10.395 67.7929 9.467 67.1529 8.795C66.5129 8.123 65.5849 7.803 64.3369 7.803C63.0249 7.803 61.8729 8.251 60.8489 9.147C59.8249 10.043 59.0249 11.227 58.4489 12.731C57.8729 14.235 57.5849 15.867 57.5849 17.627C57.5849 18.555 57.7449 19.355 58.0649 20.027C58.3849 20.699 58.8649 21.211 59.4729 21.563C60.0809 21.915 60.7849 22.075 61.5849 22.075C62.7369 22.075 63.7929 21.723 64.7529 21.051C65.7129 20.379 66.4489 19.451 66.9929 18.267H74.5449C73.5849 21.211 71.9529 23.483 69.6809 25.115C67.4089 26.747 64.5289 27.547 61.0409 27.547C58.9609 27.547 57.1049 27.163 55.4729 26.427ZM98.0794 14.683H98.0154C97.0554 16.027 95.6474 17.051 93.8234 17.787L97.7914 27.099H89.7914L86.7514 18.875H83.9354L82.1754 27.099H74.9114L80.0634 2.779H90.4314C92.1274 2.779 93.6634 3.067 95.0394 3.643C96.4154 4.219 97.5034 5.051 98.3034 6.139C99.1034 7.227 99.5194 8.539 99.5194 10.043C99.5194 11.803 99.0394 13.339 98.0794 14.683ZM86.1754 8.315L85.0874 13.435H88.5434C89.3434 13.435 90.0154 13.307 90.5274 13.019C91.0394 12.731 91.4234 12.379 91.6794 11.931C91.9354 11.483 92.0634 11.003 92.0634 10.491C92.0634 9.851 91.8394 9.339 91.3914 8.923C90.9434 8.507 90.3674 8.315 89.6314 8.315H86.1754ZM122.827 2.779L121.579 8.539H111.019L110.315 11.835H120.651L119.435 17.595H109.099L108.331 21.339H119.147L117.931 27.099H99.8191L104.971 2.779H122.827ZM145.963 27.099H138.699L138.379 21.467H129.419L126.667 27.099H118.987L131.467 2.779H143.851L145.963 27.099ZM137.387 5.051L132.203 15.707H138.027L137.387 5.051ZM148.656 2.779H169.648L168.464 8.539H161.584L157.648 27.099H150.384L154.288 8.539H147.408L148.656 2.779ZM174.239 27.099H166.975L172.127 2.779H179.391L174.239 27.099ZM189.108 24.859L198.772 2.779H206.772L195.316 27.099H182.388L181.236 2.779H188.692L189.108 24.859ZM226.483 2.779L225.235 8.539H214.675L213.971 11.835H224.307L223.091 17.595H212.755L211.987 21.339H222.803L221.587 27.099H203.475L208.627 2.779H226.483Z" fill="black"/>
</svg>
