<svg width="221" height="41" viewBox="0 0 221 41" fill="none" xmlns="http://www.w3.org/2000/svg">
<g filter="url(#filter0_d_63899_352)">
<rect x="6" width="215" height="35" rx="17.5" fill="white" shape-rendering="crispEdges"/>
<rect x="6.5" y="0.5" width="214" height="34" rx="17" stroke="black" shape-rendering="crispEdges"/>
<path d="M26.34 9.8H38.72V12.02H33.82V25H31.24V12.02H26.34V9.8ZM50.5864 16.04V9.8H53.1664V25H50.5864V18.34H43.3864V25H40.8064V9.8H43.3864V16.04H50.5864ZM59.2263 25H56.6463V9.8H59.2263V25ZM73.7809 24.7V9.8H76.3609V25H71.2209L65.2809 10.1V25H62.7009V9.8H67.8409L73.7809 24.7ZM85.4094 17L92.6494 25H89.3494L82.4294 17.32V25H79.8494V9.8H82.4294V16.76L88.7094 9.8H91.9494L85.4094 17ZM103.813 24.68L108.453 9.8H111.253L106.353 25H101.273L96.353 9.8H99.173L103.813 24.68ZM115.652 25H113.072V9.8H115.652V25ZM121.267 24.66L121.247 24.74C120.367 24.34 119.647 23.78 119.087 23.04C118.527 22.3 118.187 21.44 118.047 20.44H120.727C120.847 21.34 121.227 22.02 121.867 22.5C122.507 22.98 123.307 23.22 124.267 23.22C125.047 23.22 125.727 23.12 126.287 22.92C126.847 22.72 127.287 22.44 127.587 22.08C127.887 21.72 128.027 21.3 128.027 20.84C128.027 20.38 127.907 20 127.667 19.72C127.427 19.44 127.087 19.22 126.627 19.06C126.167 18.9 125.527 18.72 124.687 18.54L122.647 18.1C121.347 17.82 120.327 17.34 119.587 16.66C118.847 15.98 118.487 15.08 118.487 13.96C118.487 13.14 118.747 12.4 119.247 11.74C119.747 11.08 120.427 10.56 121.287 10.18C122.147 9.8 123.107 9.6 124.167 9.6C125.307 9.6 126.307 9.78 127.167 10.14C128.027 10.5 128.707 11 129.227 11.64C129.747 12.28 130.087 13.02 130.227 13.86H127.547C127.327 13.12 126.927 12.58 126.347 12.24C125.767 11.9 125.047 11.72 124.187 11.72C123.607 11.72 123.087 11.8 122.607 11.96C122.127 12.12 121.747 12.36 121.467 12.66C121.187 12.96 121.047 13.32 121.047 13.72C121.047 14.14 121.147 14.48 121.347 14.74C121.547 15 121.867 15.22 122.307 15.4C122.747 15.58 123.367 15.76 124.167 15.94L126.187 16.38C127.207 16.6 128.027 16.88 128.667 17.24C129.307 17.6 129.787 18.04 130.107 18.58C130.427 19.12 130.587 19.78 130.587 20.56C130.587 21.5 130.327 22.32 129.807 23.04C129.287 23.76 128.547 24.3 127.587 24.68C126.627 25.06 125.507 25.26 124.247 25.26C123.147 25.26 122.147 25.06 121.267 24.66ZM133.029 18.94V18.92V9.82H135.609V19.12V19.16C135.609 21.82 136.809 23.16 139.189 23.16C141.569 23.16 142.749 21.82 142.749 19.12V9.82H145.329V18.92C145.329 20.98 144.829 22.54 143.849 23.62C142.869 24.7 141.309 25.24 139.189 25.24C135.089 25.24 133.029 23.14 133.029 18.94ZM162.125 25H159.405L157.945 20.64H150.845L149.385 25H146.665L151.925 9.8H156.865L162.125 25ZM154.405 10.12L151.585 18.44H157.205L154.405 10.12ZM166.472 9.8V22.78H173.252V25H163.892V9.8H166.472ZM177.918 9.8V22.78H184.698V25H175.338V9.8H177.918ZM193.64 9.8H196.58L190.84 18.66V25H188.28V18.66L182.54 9.8H185.46L189.56 16.2L193.64 9.8ZM198.912 25H196.072V22.28H198.912V25Z" fill="black"/>
</g>
<defs>
<filter id="filter0_d_63899_352" x="0" y="0" width="221" height="41" filterUnits="userSpaceOnUse" color-interpolation-filters="sRGB">
<feFlood flood-opacity="0" result="BackgroundImageFix"/>
<feColorMatrix in="SourceAlpha" type="matrix" values="0 0 0 0 0 0 0 0 0 0 0 0 0 0 0 0 0 0 127 0" result="hardAlpha"/>
<feOffset dx="-6" dy="6"/>
<feComposite in2="hardAlpha" operator="out"/>
<feColorMatrix type="matrix" values="0 0 0 0 0.721569 0 0 0 0 0.14902 0 0 0 0 0.988235 0 0 0 1 0"/>
<feBlend mode="normal" in2="BackgroundImageFix" result="effect1_dropShadow_63899_352"/>
<feBlend mode="normal" in="SourceGraphic" in2="effect1_dropShadow_63899_352" result="shape"/>
</filter>
</defs>
</svg>
