<svg width="1340" height="679" viewBox="0 0 1340 679" fill="none" xmlns="http://www.w3.org/2000/svg">
<path d="M1340 575.129C1340 597.22 1322.09 615.129 1300 615.129H1196.94C1179.85 615.129 1166 628.979 1166 646.064C1166 663.15 1152.15 677 1135.06 677H40C17.9086 677 0 659.091 0 637V40C0 17.9086 17.9086 0 40 0H1300C1322.09 0 1340 17.9086 1340 40V575.129Z" fill="black" fill-opacity="0.4"/>
<rect x="1178" y="627" width="112" height="52" rx="26" fill="#DFDAD3"/>
<rect x="1192" y="641" width="24" height="24" rx="12" fill="black"/>
<path d="M1202.06 650.237C1201.96 650.173 1201.82 650.251 1201.82 650.378V655.622C1201.82 655.749 1201.96 655.827 1202.06 655.763L1206.49 653.141C1206.6 653.078 1206.6 652.923 1206.49 652.859L1202.06 650.237Z" stroke="white" stroke-width="0.409091" stroke-linecap="round" stroke-linejoin="round"/>
<path d="M1234.79 646.32V646.356C1235.92 646.356 1236.89 646.518 1237.7 646.86C1238.51 647.202 1239.12 647.706 1239.56 648.354C1239.99 649.002 1240.2 649.794 1240.2 650.712C1240.2 651.63 1239.99 652.422 1239.56 653.07C1239.12 653.718 1238.51 654.222 1237.7 654.564C1236.89 654.906 1235.92 655.068 1234.79 655.068H1231.89V660H1229.57V646.32H1234.79ZM1234.84 653.124V653.106C1235.79 653.106 1236.51 652.908 1237.02 652.512C1237.52 652.116 1237.77 651.522 1237.77 650.73C1237.77 649.938 1237.52 649.344 1237.02 648.948C1236.51 648.552 1235.79 648.354 1234.84 648.354H1231.89V653.124H1234.84ZM1244.56 646.32V658.002H1250.66V660H1242.24V646.32H1244.56ZM1264.94 660H1262.49L1261.18 656.076H1254.79L1253.48 660H1251.03L1255.76 646.32H1260.21L1264.94 660ZM1257.99 646.608L1255.46 654.096H1260.51L1257.99 646.608ZM1273.34 646.32H1275.98L1270.82 654.294V660H1268.51V654.294L1263.35 646.32H1265.98L1269.67 652.08L1273.34 646.32Z" fill="black"/>
</svg>
